<?xml version="1.0" encoding="utf-8"?>
<!-- Generator: Adobe Illustrator 24.3.0, SVG Export Plug-In . SVG Version: 6.00 Build 0)  -->
<svg version="1.1" xmlns="http://www.w3.org/2000/svg" xmlns:xlink="http://www.w3.org/1999/xlink" x="0px" y="0px"
	 viewBox="0 0 238.17 238.17" style="enable-background:new 0 0 238.17 238.17;" xml:space="preserve">
<style type="text/css">
	.st0{fill:#8D72E1;}
</style>
<g id="BG">
</g>
<g id="graphics">
	<g>
		<path class="st0" d="M69.89,110.03"/>
		<path class="st0" d="M145.68,38.29c-26.71-17.22-65.2,4.39-85.95,48.27c-1.29,2.73-4.09,8.92-5.18,11.68c0,0,8.43-4.15,8.78-4.89
			c0.45-0.95,2.51-5.31,2.97-6.23c19.13-38.06,52.23-57,74.04-42.93c22.34,14.4,23.24,58.29,4.35,98.21
			c-18.89,39.93-50.4,60.79-72.74,46.39c-9.15-5.9-15.11-16.86-17.71-30.46c-2.27,0.3-4.48,0.05-6.08-0.26
			c2.86,17.24,10.41,31.43,22.36,39.13c26.71,17.22,65.2-4.39,85.95-48.27C177.23,105.05,172.4,55.52,145.68,38.29z"/>
		<g>
			<path class="st0" d="M52.31,119.93c-9.7,0-17.57,7.78-17.57,17.37c0,9.59,7.87,17.37,17.57,17.37c9.7,0,17.57-7.78,17.57-17.37
				C69.87,127.71,62.01,119.93,52.31,119.93z"/>
			<g>
				<path class="st0" d="M52.31,115.74c12,0,21.76,9.67,21.76,21.56c0,3.95-1.09,7.64-2.97,10.82h53.64
					c-17.57,29.36-38.89,35.3-51.64,28.49c-10.71-5.72-13.87-16-14.41-18.1c0.92,3.97,1.97,7.74,3.29,11.19
					c4.78,11.26,13.48,19.45,25.43,19.45c22.66,0,43.22-26.81,53.5-48.55c18.1-38.25,17.28-79.93-2.83-92.9
					c-17.46-11.25-43.47,2.18-61.53,29.97c31.48-42.95,61.51-34.43,66.97-5.3c0.64,3.44,0.97,7.15,1.02,11.07
					c-7.73-1.09-14.71-1.74-20.96-2.11c-24.59-1.45-24.59,2.54-60.99,23.23C15.97,105.03,0,123.64,0,123.64v4.78
					c4.14-1.64,12.65-4.41,22.99-4.41l-7.66,15.03c0,0-10.07,1.27-15.33,2.25v6.83h33.51c-1.88-3.19-2.97-6.88-2.97-10.82
					C30.54,125.41,40.31,115.74,52.31,115.74z M109.14,88.89c5.92-1.21,18.92-0.68,35.17,1.74c-0.36,5.05-1.17,10.34-2.38,15.76
					c-15.37,0.22-29.48-0.28-43.1-0.06c1-1.67,1.55-3.76-0.31-5.01c-2.44-1.62-6.69,1.01-9.89,5.35c-4.8,0.25-9.57,0.63-14.34,1.22
					C74.3,107.89,97.6,91.24,109.14,88.89z"/>
			</g>
		</g>
		<g>
			<path class="st0" d="M199.08,119.74c-9.7,0-17.57,7.86-17.57,17.57c0,9.7,7.87,17.57,17.57,17.57c9.7,0,17.57-7.87,17.57-17.57
				C216.64,127.6,208.78,119.74,199.08,119.74z"/>
			<path class="st0" d="M238.01,121.99c-2.02,0.23-5.59,0.44-9.44-0.25c-5.91-1.05-8.62-7.73-8.62-7.73h16.51
				c-0.47-1.76-1.02-3.67-1.66-5.81c-19.89-7.83-37.53-13.44-53.12-17.47c-1.09-22.4-9.34-41.34-24.16-50.74
				c-2.29-1.45-4.66-2.6-7.1-3.5c14.28,10.66,20.96,29.01,22.69,46.82c1.45,14.82-0.26,30.74-4.83,46.33
				c-2.08,7.14-4.76,14.21-8,21.08c-13.79,29.15-35.51,49.55-57.62,55.08c22.11-0.58,50.37-19.47,67.52-57.67
				c13.43,0,7.44,0,10.05,0c-1.84-3.19-2.91-6.88-2.91-10.82c0-12,9.76-21.76,21.76-21.76c12,0,21.76,9.76,21.76,21.76
				c0,3.94-1.07,7.63-2.91,10.82c7.16,0-7.1,0,9.2,0c2.71-11.07,9.96-12.62,10.65-17.53C238.22,127.45,238.28,124.75,238.01,121.99z
				 M185.14,103.66c-1.21-0.25-2.4-0.49-3.57-0.72c0.1-1.58,0.17-3.14,0.2-4.69c5.13,1.38,10.3,2.9,15.44,4.58
				C192.68,103.84,193.04,105.3,185.14,103.66z"/>
		</g>
	</g>
</g>
</svg>
