<svg id="Layer_1" data-name="Layer 1" xmlns="http://www.w3.org/2000/svg" viewBox="0 0 238.17 173.43"><defs><style>.cls-1{fill:#3676ec;}</style></defs><g id="graphics"><path class="cls-1" d="M69.89,110" transform="translate(0 -32.37)"/><path class="cls-1" d="M145.68,38.29c-26.71-17.22-65.2,4.39-86,48.27-1.29,2.73-4.09,8.92-5.18,11.68,0,0,8.43-4.15,8.78-4.89.45-.95,2.51-5.31,3-6.23,19.13-38.06,52.23-57,74-42.93,22.34,14.4,23.24,58.29,4.35,98.21S94.29,203.19,72,188.79c-9.15-5.9-15.11-16.86-17.71-30.46a19.35,19.35,0,0,1-6.08-.26C51,175.31,58.57,189.5,70.52,197.2c26.71,17.22,65.2-4.39,86-48.27S172.4,55.52,145.68,38.29Z" transform="translate(0 -32.37)"/><path class="cls-1" d="M52.31,119.93A17.37,17.37,0,1,0,69.88,137.3,17.48,17.48,0,0,0,52.31,119.93Z" transform="translate(0 -32.37)"/><path class="cls-1" d="M52.31,115.74A21.68,21.68,0,0,1,74.07,137.3a21.18,21.18,0,0,1-3,10.82h53.64c-17.57,29.36-38.89,35.3-51.64,28.49a29.8,29.8,0,0,1-14.41-18.1A85.54,85.54,0,0,0,62,169.7c4.78,11.26,13.48,19.45,25.43,19.45,22.66,0,43.22-26.81,53.5-48.55,18.1-38.25,17.28-79.93-2.83-92.9-17.46-11.25-43.47,2.18-61.53,30,31.48-42.95,61.51-34.43,67-5.3a65.29,65.29,0,0,1,1,11.07c-7.73-1.09-14.71-1.74-21-2.11C99,79.88,99,83.87,62.59,104.56,16,105,0,123.64,0,123.64v4.78A64,64,0,0,1,23,124l-7.66,15S5.26,140.31,0,141.29v6.83H33.51a21.24,21.24,0,0,1-3-10.82A21.69,21.69,0,0,1,52.31,115.74Zm56.83-26.85c5.92-1.21,18.92-.68,35.17,1.74a107.93,107.93,0,0,1-2.38,15.76c-15.37.22-29.48-.28-43.1-.06,1-1.67,1.55-3.76-.31-5-2.44-1.62-6.69,1-9.89,5.35-4.8.25-9.57.63-14.34,1.22C74.3,107.89,97.6,91.24,109.14,88.89Z" transform="translate(0 -32.37)"/><path class="cls-1" d="M199.08,119.74a17.57,17.57,0,1,0,17.57,17.57A17.57,17.57,0,0,0,199.08,119.74Z" transform="translate(0 -32.37)"/><path class="cls-1" d="M238,122a33.55,33.55,0,0,1-9.44-.25c-5.91-1-8.62-7.73-8.62-7.73h16.51c-.47-1.76-1-3.67-1.66-5.81a458,458,0,0,0-53.12-17.47c-1.09-22.4-9.34-41.34-24.16-50.74a37.42,37.42,0,0,0-7.1-3.5c14.28,10.66,21,29,22.69,46.82a123.47,123.47,0,0,1-4.83,46.33,143.78,143.78,0,0,1-8,21.08c-13.79,29.15-35.51,49.55-57.62,55.08,22.11-.58,50.37-19.47,67.52-57.67h10a21.76,21.76,0,1,1,37.7,0h9.2c2.71-11.07,10-12.62,10.65-17.53A35.45,35.45,0,0,0,238,122Zm-52.87-18.33-3.57-.72c.1-1.58.17-3.14.2-4.69,5.13,1.38,10.3,2.9,15.44,4.58C192.68,103.84,193,105.3,185.14,103.66Z" transform="translate(0 -32.37)"/></g></svg>